<svg xmlns="http://www.w3.org/2000/svg" viewBox="0 0 160.88 46.38"><defs><style>.cls-1{fill:#fff;}.cls-2{fill:#fff;}</style></defs><title>Asset 45</title><g id="Layer_2" data-name="Layer 2"><g id="Layer_1-2" data-name="Layer 1"><path class="cls-1" d="M158.26,19.78c-.08,0-7.4,3.2-7.71,3.2s-.24-.07-.24-.21a1.3,1.3,0,0,1,.25-.7l2.26-3.16a14.12,14.12,0,0,0,.7-1.49l.51-2c0-.21,0-.41,0-.6v-.5a1.24,1.24,0,0,0-.16-.57,3.81,3.81,0,0,0-2-.71c-.87-.09-1.56-.14-2.08-.14a5.78,5.78,0,0,0-2.23.55l-.35.16.05,0L141,16.45c-.36.21-13.34,5.27-13.34,5.27-.45.11-4.66.73-5.44.73A12.72,12.72,0,0,1,118,21.37a5,5,0,0,1-.31-1.09c.41-.23,4.72-1.7,5.24-1.92l.69-.29.15-.06.09-.05c.23-.1,4-2.14,4-2.14l1.06-.81h0a.47.47,0,0,0,.24-.33,4,4,0,0,0,.08-.75,1.45,1.45,0,0,0-.27-.87,1.1,1.1,0,0,0-.39-.31s-1.41-.55-1.61-.59a9.38,9.38,0,0,0-1.88-.22,16.6,16.6,0,0,0-2.31.15,4.66,4.66,0,0,0-.77.17h0l-.1,0h0s-5.08,1.55-6.83,2.8h0A21.38,21.38,0,0,0,112.83,17l-2.67,3v0a1.82,1.82,0,0,0-.28.11l-.71.39a4.5,4.5,0,0,1-.74.33,3.19,3.19,0,0,1-1.1.15,5.25,5.25,0,0,1-2.31-1,11.65,11.65,0,0,0-3.25-3.06c-1.11-.56-4.07-.2-4.54-.1a10.09,10.09,0,0,0-1.29.33c-.39.13-.74.26-1.06.39s-8.31,4-8.49,4.07a1.7,1.7,0,0,1-.43.07c-.11,0-.16,0-.16-.14a1.4,1.4,0,0,1,.36-.71q.34-.47.78-1c.28-.33.55-.65.78-1l.86-1.26a7.25,7.25,0,0,0,.51-.8,3.88,3.88,0,0,0,.35-.83,2.47,2.47,0,0,0,.12-.63,1.5,1.5,0,0,0-.78-1.15,6.66,6.66,0,0,0-1.7-.54h-.49a5.34,5.34,0,0,0-1,.1h-.08l-2.25.41-.14,0a2.61,2.61,0,0,0-.27.06l-.08,0h0a1.82,1.82,0,0,0-.43.19l-1.1.62c-.26.15-2.69,1.43-4.86,2.58-1.7.89-3.74,2.05-3.87,2.14l-.23.09c-.29.13-.61.27-1,.41s-.74.28-1.13.41a3.7,3.7,0,0,1-1.14.2,4.4,4.4,0,0,1-1.6-.22,1.62,1.62,0,0,1-.71-.48,1.57,1.57,0,0,1-.27-.53,3.21,3.21,0,0,0-.16-.41,6.76,6.76,0,0,0-.12-1.42,1.32,1.32,0,0,0-.47-.8,1.83,1.83,0,0,0-.9-.34,12.14,12.14,0,0,0-1.33-.07,7,7,0,0,0-1,.06,2.83,2.83,0,0,0-.78.21,5.67,5.67,0,0,0-.86.46c-.31.2-.73.46-1.25.77l-8,4.32h0l-.33.12a3.09,3.09,0,0,1-1.1.3.68.68,0,0,1-.66-.42A8.75,8.75,0,0,1,49,21.38c0-2,1.47-3.55,1.57-3.9a10.41,10.41,0,0,1,.87-1.32c.26-.33.49-.61.7-.83a6.82,6.82,0,0,0,.47-.57,1,1,0,0,0,.16-.55.69.69,0,0,0-.28-.57,2.23,2.23,0,0,0-1.21-.21,6.78,6.78,0,0,0-1.8.25,10.47,10.47,0,0,0-2.15.78c-.24.19-8.88,5.29-9.35,5.43l1.16-3.16.41-1.64,2-10.2L42,2A14.52,14.52,0,0,0,41.92.23C41.85.08,41.67,0,41.41,0a34.17,34.17,0,0,0-3.28,1.1c-.32.31-2.48,3.58-2.48,3.58s-.42,2.51-.43,2.87l-4.1,14.6a.85.85,0,0,1-.35.09.7.7,0,0,1-.18,0l-.46-.39-13-15.34c0-.15,2.27-3.57,2.64-4q0-.36-.51-.57a3,3,0,0,0-1.14-.22A3,3,0,0,0,17,2a8.75,8.75,0,0,0-1.1.57c-.34.22-.65.4-.94.57a1.5,1.5,0,0,1-.74.25,1.18,1.18,0,0,1-.78-.25,25.31,25.31,0,0,0-4.9.11,1.6,1.6,0,0,0-.78.67A8.72,8.72,0,0,0,7.2,5.19a3.17,3.17,0,0,0,.08.8,1.67,1.67,0,0,1,.07.42l0,.15a4.82,4.82,0,0,0-.52.92l-.06.11-.07.2a.38.38,0,0,0,0,.1.57.57,0,0,0,0,.14L.12,26.29l0,.09A2.25,2.25,0,0,0,0,27a1.44,1.44,0,0,0,.16.82q.15.21.78.21l1.73-.38h.07l.47-.11,1.06-1.45c.09-.1.18-.21.27-.3a12.39,12.39,0,0,0,.83-1L12.13,13.5a3,3,0,0,1,.51-.89.56.56,0,0,1,.36-.18.7.7,0,0,1,.47.22,5.6,5.6,0,0,1,.47.49c.15.19,4.11,4.27,4.11,4.27l4.4,4.66.14.15s0,0,.06.05l.11.12.19.15a7,7,0,0,0,.58.51c.11.09.22.13.33.21l.91.72a1.5,1.5,0,0,0,.2.24,4.7,4.7,0,0,0,.63.43c.47.4,1,.79,1.49,1.16a3.09,3.09,0,0,0,1.8.55A10.21,10.21,0,0,0,31.2,26a31.31,31.31,0,0,0,4.58-1.72s0-.07.07-.1l.09-.07.14-.25.06-.09.6-1.08.77-.29L42,20.71c.16,0,.24.16.24.5a4.67,4.67,0,0,0,.12,1.05v.13L42.9,24a2.06,2.06,0,0,0,.82.84c.29.13,1.78.63,2.12.72a5.78,5.78,0,0,0,1.52.15,7.84,7.84,0,0,0,1.73-.15,38.8,38.8,0,0,0,4.5-1.47,6.82,6.82,0,0,1,1.52-.69A3.24,3.24,0,0,0,56,23l1.33-.83c.47-.3.91-.56,1.33-.8a2.61,2.61,0,0,1,.78-.36.77.77,0,0,1,.71.43,4.93,4.93,0,0,0,.7.94,4.16,4.16,0,0,0,1.49.94,8.45,8.45,0,0,0,3.13.43,14,14,0,0,0,2.07-.14c.6-.1,1.16-.21,1.69-.34s1-.27,1.45-.41,2.65-.87,4-1.47a47.6,47.6,0,0,1,5.43-2.26,1.57,1.57,0,0,1,.27,0L77.3,24.88v0a.78.78,0,0,0-.11.35v.86a.53.53,0,0,0,.39.55,6.48,6.48,0,0,0,1.57.12h.7a7.3,7.3,0,0,0,.94-.05c.32,0,13.32-6,13.82-6.22a4.14,4.14,0,0,1,1.29-.26,2.13,2.13,0,0,1,.9.23A17.36,17.36,0,0,1,99,21.79l1.29,1.05a7.23,7.23,0,0,0,1.53.92,5.58,5.58,0,0,0,2.27.39A14,14,0,0,0,110.88,22a3.92,3.92,0,0,0,.64.87,6.19,6.19,0,0,0,.86.73A20.61,20.61,0,0,0,115.9,25a16,16,0,0,0,3.33.28,13.22,13.22,0,0,0,1.88-.14,15.92,15.92,0,0,0,3-.29,29.07,29.07,0,0,0,3-.71c1-.28,2-.59,3.05-.92s4.27-1.38,4.82-1.65,1.31-.63,2.31-1.08,5.92-2.26,6.06-2.32h0s2.62-1.16,3.16-.86-.52,2.78-.65,3.27a9,9,0,0,1-.43,1.3c-.14.32-.3.48-.48.52a2.67,2.67,0,0,0-2-.78,2.77,2.77,0,0,0-1.81.62,3,3,0,0,0-1.38,2.61,2.8,2.8,0,0,0,2.59,3,2.91,2.91,0,0,0,.31,0v0l.16,0,.1,0,.85-.17h.11l15.48-6,1.56-2.74Zm-40.2-2.61c.18-.13,3.13-1.56,3.13-1.56a3.13,3.13,0,0,1,1.25-.27c.26,0,.39.1.39.29s-.15.4-.45.62l-3.22,1.43c-.25.07-.47.12-.63.15-.53,0-.79-.07-.79-.21S117.85,17.33,118.06,17.17Z"/><path class="cls-2" d="M49.08,42.23H44.23l-.87,2H42.28l3.84-8.69h1.07L51,44.2H50Zm-.41-.94-2-4.57-2,4.57Z"/><path class="cls-2" d="M58.42,37.66v5.85a2.93,2.93,0,0,1-3.21,2.87,4.23,4.23,0,0,1-2.65-.88l.42-.74a3.11,3.11,0,0,0,2.1.77c1.51,0,2.39-.75,2.39-2V42.44a2.71,2.71,0,0,1-2.38,1.28,3.11,3.11,0,0,1,0-6.21,2.71,2.71,0,0,1,2.38,1.28V37.66Zm-1,3a2.2,2.2,0,1,0-2.2,2.26A2.13,2.13,0,0,0,57.47,40.61Z"/><path class="cls-2" d="M65.44,42.72l.58.62a3.9,3.9,0,0,1-2.63,1,3.36,3.36,0,0,1-3.31-3.44,3.28,3.28,0,0,1,3.22-3.4c2,0,3.1,1.49,3.1,3.78H61.05a2.33,2.33,0,0,0,2.33,2.22A3.1,3.1,0,0,0,65.44,42.72Zm-4.38-2.28h4.4a2.08,2.08,0,0,0-2.12-2.08A2.29,2.29,0,0,0,61.06,40.44Zm1.25-3.53h-.72l1.27-1.73h.88L65,36.91H64.3l-1-1.08Z"/><path class="cls-2" d="M73.52,40V44.2h-1v-4a1.65,1.65,0,0,0-1.63-1.81,1.91,1.91,0,0,0-2,1.68V44.2H68V37.66h1v1.05a2.49,2.49,0,0,1,2.15-1.2A2.39,2.39,0,0,1,73.52,40Z"/><path class="cls-2" d="M75.08,40.92a3.45,3.45,0,0,1,3.39-3.41,3.39,3.39,0,0,1,2.33,1l-.66.65a2.26,2.26,0,0,0-1.67-.76,2.58,2.58,0,0,0,0,5.15,2.31,2.31,0,0,0,1.71-.8l.66.64a3.34,3.34,0,0,1-2.37,1A3.46,3.46,0,0,1,75.08,40.92Z"/><path class="cls-2" d="M82.13,35.84a.63.63,0,1,1,.63.63A.63.63,0,0,1,82.13,35.84Zm.15,1.82h1V44.2h-1Z"/><path class="cls-2" d="M90.45,40.22v4h-1v-1a2.73,2.73,0,0,1-2.3,1.17,2.13,2.13,0,0,1-2.39-2.08,2.34,2.34,0,0,1,2.57-2.18,7,7,0,0,1,2.12.37v-.24a1.67,1.67,0,0,0-1.77-1.9,4.43,4.43,0,0,0-1.91.59l-.38-.77a5.26,5.26,0,0,1,2.35-.63A2.46,2.46,0,0,1,90.45,40.22Zm-1,1.93v-1a7.57,7.57,0,0,0-2-.26c-1,0-1.8.55-1.8,1.34s.71,1.29,1.63,1.29A2.16,2.16,0,0,0,89.5,42.15Z"/><path class="cls-2" d="M102.11,35.36V44.2h-1V43a2.65,2.65,0,0,1-2.38,1.38,3.13,3.13,0,0,1-3-3.43,3.13,3.13,0,0,1,3-3.41,2.65,2.65,0,0,1,2.38,1.38V35.36Zm-1,5.56a2.22,2.22,0,1,0-4.39,0,2.23,2.23,0,1,0,4.39,0Z"/><path class="cls-2" d="M109.13,42.72l.58.62a3.9,3.9,0,0,1-2.63,1,3.36,3.36,0,0,1-3.32-3.44,3.29,3.29,0,0,1,3.23-3.4c2,0,3.1,1.49,3.1,3.78h-5.35a2.32,2.32,0,0,0,2.32,2.22A3.1,3.1,0,0,0,109.13,42.72Zm-4.38-2.28h4.4A2.09,2.09,0,0,0,107,38.36,2.29,2.29,0,0,0,104.75,40.44Z"/><path class="cls-2" d="M114.69,37.66h1.06l2.18,5.43,2.13-5.43h1.07l-2.75,6.54h-.91Z"/><path class="cls-2" d="M122.26,35.84a.63.63,0,0,1,.63-.62.63.63,0,0,1,0,1.25A.63.63,0,0,1,122.26,35.84Zm.15,1.82h1V44.2h-1Z"/><path class="cls-2" d="M130.58,40.22v4h-.94v-1a2.75,2.75,0,0,1-2.31,1.17,2.14,2.14,0,0,1-2.39-2.08,2.34,2.34,0,0,1,2.57-2.18,7,7,0,0,1,2.13.37v-.24a1.67,1.67,0,0,0-1.77-1.9,4.39,4.39,0,0,0-1.91.59l-.38-.77a5.23,5.23,0,0,1,2.35-.63A2.46,2.46,0,0,1,130.58,40.22Zm-.94,1.93v-1a7.71,7.71,0,0,0-2-.26c-1,0-1.79.55-1.79,1.34s.71,1.29,1.63,1.29A2.17,2.17,0,0,0,129.64,42.15Z"/><path class="cls-2" d="M138.55,37.66v5.85a2.93,2.93,0,0,1-3.21,2.87,4.23,4.23,0,0,1-2.65-.88l.42-.74a3.11,3.11,0,0,0,2.1.77c1.51,0,2.39-.75,2.39-2V42.44a2.71,2.71,0,0,1-2.38,1.28,3.11,3.11,0,0,1,0-6.21,2.71,2.71,0,0,1,2.38,1.28V37.66Zm-1,3a2.2,2.2,0,1,0-2.2,2.26A2.13,2.13,0,0,0,137.6,40.61Z"/><path class="cls-2" d="M145.57,42.72l.58.62a3.9,3.9,0,0,1-2.63,1,3.36,3.36,0,0,1-3.31-3.44,3.28,3.28,0,0,1,3.22-3.4c2,0,3.1,1.49,3.1,3.78h-5.35a2.33,2.33,0,0,0,2.33,2.22A3.1,3.1,0,0,0,145.57,42.72Zm-4.38-2.28h4.4a2.08,2.08,0,0,0-2.12-2.08A2.29,2.29,0,0,0,141.19,40.44Z"/><path class="cls-2" d="M153.65,40V44.2h-1v-4a1.65,1.65,0,0,0-1.63-1.81A1.91,1.91,0,0,0,149,40V44.2h-.95V37.66H149v1.05a2.49,2.49,0,0,1,2.15-1.2A2.39,2.39,0,0,1,153.65,40Z"/><path class="cls-2" d="M155.18,43.38l.49-.7a3.76,3.76,0,0,0,2.21.83c.86,0,1.45-.41,1.45-1s-.76-.94-1.65-1.19c-1.58-.45-2.19-.92-2.19-1.86a2,2,0,0,1,2.29-1.92,4.39,4.39,0,0,1,2.34.73l-.45.74a3.57,3.57,0,0,0-1.89-.62c-.73,0-1.34.33-1.34,1s.48.74,1.7,1.14c1.05.33,2.13.68,2.13,1.92s-1,2-2.39,2A4.43,4.43,0,0,1,155.18,43.38Z"/></g></g></svg>